PathFileType	4	(X/Y/Z)	Patient4_TMGait_0pt8_01_right_50.trc.trc
DataRate	CameraRate	NumFrames	NumMarkers	Units	OrigDataRate	OrigDataStartFrame	OrigNumFrames
88.607594936709	88.607594936709	5	33	mm	88.607594936709	36	       141
Frame#	Time	Sacral			L.Shoulder			Chest			R.Shoulder			Neck			R.ASIS			L.ASIS			R.Thigh.Superior			R.Thigh.Lateral			R.Thigh.Inferior			R.Patella			L.Thigh.Superior			L.Thigh.Lateral			L.Thigh.Inferior			L.Patella			L.Shank.Superior			L.Shank.Lateral			L.Shank.Inferior			R.Shank.Superior			R.Shank.Lateral			R.Shank.Inferior			R.Heel			R.Midfoot.Superior			R.Midfoot.Lateral			R.Toe			L.Heel			L.Midfoot.Lateral			L.Midfoot.Superior			L.Toe			L.Elbow			L.Wrist			R.Elbow			R.Wrist			
		X1	Y1	Z1	X2	Y2	Z2	X3	Y3	Z3	X4	Y4	Z4	X5	Y5	Z5	X6	Y6	Z6	X7	Y7	Z7	X8	Y8	Z8	X9	Y9	Z9	X10	Y10	Z10	X11	Y11	Z11	X12	Y12	Z12	X13	Y13	Z13	X14	Y14	Z14	X15	Y15	Z15	X16	Y16	Z16	X17	Y17	Z17	X18	Y18	Z18	X19	Y19	Z19	X20	Y20	Z20	X21	Y21	Z21	X22	Y22	Z22	X23	Y23	Z23	X24	Y24	Z24	X25	Y25	Z25	X26	Y26	Z26	X27	Y27	Z27	X28	Y28	Z28	X29	Y29	Z29	X30	Y30	Z30	X31	Y31	Z31	X32	Y32	Z32	X33	Y33	Z33	

36	56.705000000000	894.333635982118	998.466159632194	508.506495072157	1082.512656214348	1427.670381675723	331.860042001062	1176.571540116088	1358.006285110462	498.022494784305	1082.794268815733	1429.719268259605	667.687111010750	1052.564163652300	1485.535051672021	485.555221470718	1122.319097198528	930.383961902173	626.788464538578	1107.495681891061	955.167557687947	355.041696590434	1193.220891733198	753.196846944541	594.617028450515	1132.434949103981	631.797285912501	657.559160390238	1219.699638761084	593.201362053235	579.582674498127	1236.408544375521	504.772781938885	588.258508331627	1113.316581984863	725.960294334257	367.894705880155	998.101175793312	627.668463691687	311.339006680257	1071.898617535866	530.410707254321	363.445413302910	1053.850599029770	450.077037384411	363.513232814213	987.625469562390	396.403878050992	361.822648912254	847.231347898529	345.786347781618	320.297693255134	842.763807536022	217.646443743496	380.684896839981	1217.390623582302	412.956241895781	596.180489125886	1156.725403379732	302.602106939889	658.097056714357	1211.549081373469	212.130280808292	598.147782801811	1092.996852843299	43.008533712302	567.709188165012	1262.739574527447	98.967480369882	604.750938862976	1176.085922070008	37.018370291671	643.407772156962	1383.518162049481	49.758979827300	632.968489562003	657.278427510350	134.079752329369	427.950154436845	718.912294398799	87.915458900004	352.623730309778	821.364979394934	112.908042349982	370.990363737394	912.375944342462	33.418107345119	356.472299279093	1118.617350782012	1091.564981308943	185.675956738274	1370.680947933457	1077.656687700754	215.984607695957	927.152827181464	1119.538405074116	767.405108666884	874.270594300749	865.555318699333	782.147947556706	
37	56.716285714286	894.756672122594	999.707298940373	512.524528695935	1080.702850217300	1429.495432031086	334.257335760224	1176.952710807162	1359.415878895149	499.024988727730	1085.400387665089	1430.764021151063	669.948462597286	1052.752485857997	1486.972841220525	488.240065269122	1123.928697702572	932.056498155376	628.365292597128	1106.799779025567	956.297649600591	356.955364608066	1192.661491533156	752.190601512317	596.819561484432	1130.168399077158	632.178492853135	659.130998766946	1216.369839816273	592.501891672136	580.448218241020	1231.940682213464	503.943851506632	588.608861583762	1118.400645569990	728.155040939071	369.739984779238	1007.063101171606	626.732791323666	312.773817778485	1084.459773577933	531.043220564730	364.117553677988	1067.330544624012	449.213371505365	363.368963449323	998.574125081772	396.051933968018	362.163011533747	856.145943437422	351.134754311897	320.877490660799	846.769765167959	223.235147774423	380.666516510575	1212.024789501224	412.396386859497	596.847386226743	1150.582218874012	302.519117769007	658.794335761864	1204.133960369639	211.650203386000	598.357327190240	1084.189383505654	42.937318951721	567.815722674232	1253.946169807673	98.872200359949	604.740832971057	1167.213131179694	37.146289807021	643.586378794872	1374.629823340626	49.747508814162	633.197771445007	658.263335817335	150.491688919862	427.887776899898	716.535328387787	99.955453326738	352.676556572075	820.383757920840	117.963187007736	370.683079147685	904.506095312307	32.002321926418	356.394320427054	1110.993046322188	1091.069143192828	191.062855441274	1362.774713965307	1063.944656267402	217.968186867533	936.881905844268	1116.533711141384	771.729775047213	893.372516698685	860.656232410882	785.821626332307	
38	56.727571428571	894.981185296767	1000.913606304074	516.515411493804	1078.538918472563	1431.232779027020	336.578733355926	1177.156126831178	1360.743256429815	499.827280768778	1088.019992756725	1431.672244090157	672.099046493835	1052.806639435250	1488.317729403653	490.890238596234	1125.326617643545	933.654511987198	629.752965124110	1105.871694039812	957.393521644640	358.617622578590	1191.615407556903	750.996273561771	599.027264368341	1127.340730350165	632.476256188168	660.734979150814	1212.422469030953	591.685482513551	581.337510495689	1226.794102834161	503.074350910800	589.040734950622	1123.654449768883	730.651125055056	371.613456626173	1016.615400134793	626.040620139048	314.033248764206	1097.513110622682	532.189821039080	364.925779035671	1081.461169596477	448.926864155650	363.485380229996	1010.403237487192	396.129579914058	362.608647883063	866.260333886817	356.805543960380	321.393687692849	851.962693989922	229.406356877179	380.782709256215	1206.088480572075	411.827635116819	597.586522837670	1143.996618954549	302.346505003804	659.512847744608	1196.421377649424	211.188052303418	598.601821276830	1075.336280160223	42.885829030824	567.899645759475	1245.143042668428	98.779824366127	604.734786646779	1158.307610894271	37.234388262556	643.713140981135	1365.721290950358	49.662474327101	633.352045072550	661.022982351086	167.678957823202	427.914919158762	715.744637596539	113.063261513735	352.753502450079	820.633149183019	123.946840929393	370.534191860326	897.591036837654	30.761270746856	356.239841766486	1103.256789613455	1090.617249411875	196.467897904684	1353.954588868140	1049.168884316957	219.882992212037	947.130557093808	1113.454673431433	776.055976848894	913.875864549251	855.877453740578	789.352459842085	
39	56.738857142857	895.013423538924	1002.080018278152	520.433035011902	1076.073457081712	1432.838389175203	338.790152138984	1177.184182880075	1361.961359597760	500.424400736526	1090.618826034375	1432.425840901554	674.113660844264	1052.749446638758	1489.554715968284	493.471502937532	1126.494972425166	935.175400474546	630.954173793883	1104.691769095223	958.433308977466	360.029712176041	1190.135326243021	749.744842769723	601.182456155561	1124.086600923544	632.740025088953	662.389311193453	1207.996596144089	590.815951163479	582.296601816440	1221.091248193945	502.210784652470	589.624646893523	1128.932701382181	733.484063198953	373.519034390716	1026.559237634725	625.729268055906	315.118266612369	1110.792423029127	533.953875884332	365.872623789229	1096.002218144238	449.325791984256	363.824264358022	1022.904419060541	396.734459998456	363.126246544504	877.357194117330	362.754923629595	321.872404436011	858.306285546934	236.049206808886	381.020419237770	1199.703624317861	411.275418950808	598.418501460975	1137.085203115336	302.122646362582	660.310220134487	1188.481860594417	210.754892177106	598.903473916139	1066.428471753074	42.867764083324	567.989901092007	1236.348302210201	98.688023487700	604.770467069851	1149.362530359142	37.280220386098	643.817693500443	1356.799070205191	49.456653246798	633.452948421915	665.550373679110	185.061553523743	428.040588117576	716.701968660091	126.801512837567	352.857324074901	822.262649664949	130.745530449300	370.528599923052	892.052342348817	29.946814048578	356.011835029831	1095.442092013254	1090.149855508601	201.839008308816	1344.091561516148	1033.492781245056	221.741030974235	957.914943145776	1110.294760637398	780.321173035813	935.690390237334	851.328063227050	792.703347099092	
40	56.750142857143	894.871651256713	1003.206372663747	524.241410460629	1073.373029886577	1434.285911025882	340.861686310470	1177.043122940315	1363.058516934474	500.819997076912	1093.158813857800	1433.029930029849	675.969011587338	1052.606396325777	1490.683652422360	495.951560425183	1127.425593897834	936.627678037091	631.986266185065	1103.245747493144	959.401956204738	361.214407670833	1188.272771035722	748.546909318288	603.238460719948	1120.510344509298	633.003346851718	664.097254837447	1203.207015601225	589.940192169908	583.353347798121	1214.943635255866	501.389481393751	590.392235294318	1134.098277501326	736.684066315286	375.461508031241	1036.688326524453	625.924043759868	316.033135833270	1124.050083118672	536.417722188267	366.926618322985	1110.726398062785	450.498144852731	364.301317152156	1035.876094893273	397.944706223500	363.657449033631	889.207378461826	368.912303916860	322.332477349170	865.763823431553	243.007189756691	381.352568606890	1192.977188640301	410.761318076480	599.350126542602	1129.932591152328	301.882683639040	661.211454833623	1180.376412268985	210.362517786073	599.276266575997	1057.468243671716	42.889392055881	568.105672493226	1227.568066167929	98.603752519841	604.868428394671	1140.379302181060	37.288905993850	643.922272288448	1347.868543018834	49.121923666349	633.525076492659	671.776088531283	201.985466063503	428.276007744132	719.527568521208	140.638415176080	352.995503820384	825.423093954905	138.161920283021	370.642343795448	888.364316227301	29.818576846437	355.715607533129	1087.559784361865	1089.626237555531	207.132077107526	1333.056886183558	1017.109406653210	223.562045707430	969.262587060661	1107.064251356410	784.458109513746	958.724778186715	847.126207314071	795.835499615681	
